<svg width="26" height="23" viewBox="0 0 26 23" fill="none" xmlns="http://www.w3.org/2000/svg">
<path d="M22.0275 0.4133H3.85422C2.85008 0.4133 1.88707 0.812192 1.17704 1.52222C0.467007 2.23226 0.0681152 3.19527 0.0681152 4.1994V16.3149C0.0681152 17.3191 0.467007 18.2821 1.17704 18.9921C1.88707 19.7022 2.85008 20.101 3.85422 20.101H6.12588V21.6655C6.1259 21.871 6.1817 22.0728 6.28735 22.2491C6.393 22.4255 6.54453 22.5698 6.72578 22.6668C6.90703 22.7638 7.11121 22.8098 7.31654 22.7999C7.52188 22.79 7.72067 22.7245 7.89172 22.6105L11.6551 20.101H22.0275C23.0317 20.101 23.9947 19.7022 24.7047 18.9921C25.4147 18.2821 25.8136 17.3191 25.8136 16.3149V4.1994C25.8136 3.19527 25.4147 2.23226 24.7047 1.52222C23.9947 0.812192 23.0317 0.4133 22.0275 0.4133ZM13.8495 9.99669L12.4668 11.5641L12.6622 13.648C12.6805 13.8437 12.6477 14.0408 12.5671 14.22C12.4865 14.3993 12.3609 14.5546 12.2024 14.6708C12.0439 14.787 11.858 14.8602 11.6629 14.8832C11.4677 14.9062 11.2699 14.8782 11.0887 14.802L9.15477 13.966L7.23445 14.8005C7.05363 14.8783 6.8557 14.9079 6.66003 14.8863C6.46435 14.8647 6.27764 14.7927 6.11814 14.6773C5.95864 14.5619 5.83182 14.4071 5.75009 14.228C5.66836 14.0489 5.63451 13.8517 5.65186 13.6556L5.84874 11.5672L4.46 9.99669C4.32989 9.84838 4.2406 9.66877 4.20091 9.47551C4.16121 9.28226 4.17246 9.082 4.23357 8.8944C4.29467 8.70681 4.40352 8.53834 4.54943 8.40554C4.69533 8.27275 4.87328 8.18018 5.06577 8.13695L7.10875 7.68262L8.16886 5.88043C8.27808 5.72237 8.42402 5.59318 8.59416 5.50393C8.7643 5.41469 8.95356 5.36807 9.14568 5.36807C9.3378 5.36807 9.52706 5.41469 9.6972 5.50393C9.86734 5.59318 10.0133 5.72237 10.1225 5.88043L11.1826 7.68565L13.2241 8.13998C13.4174 8.18124 13.5966 8.27211 13.7442 8.40364C13.8918 8.53518 14.0025 8.70286 14.0656 8.89019C14.1287 9.07752 14.142 9.27805 14.1041 9.47206C14.0662 9.66606 13.9785 9.84687 13.8495 9.99669ZM18.9986 14.0433H15.9698C15.7689 14.0433 15.5763 13.9635 15.4343 13.8215C15.2923 13.6795 15.2125 13.4869 15.2125 13.2861C15.2125 13.0852 15.2923 12.8926 15.4343 12.7506C15.5763 12.6086 15.7689 12.5288 15.9698 12.5288H18.9986C19.1995 12.5288 19.3921 12.6086 19.5341 12.7506C19.6761 12.8926 19.7559 13.0852 19.7559 13.2861C19.7559 13.4869 19.6761 13.6795 19.5341 13.8215C19.3921 13.9635 19.1995 14.0433 18.9986 14.0433ZM21.2703 11.0144H15.9698C15.7689 11.0144 15.5763 10.9346 15.4343 10.7926C15.2923 10.6506 15.2125 10.458 15.2125 10.2572C15.2125 10.0563 15.2923 9.86374 15.4343 9.72174C15.5763 9.57973 15.7689 9.49995 15.9698 9.49995H21.2703C21.4711 9.49995 21.6637 9.57973 21.8057 9.72174C21.9477 9.86374 22.0275 10.0563 22.0275 10.2572C22.0275 10.458 21.9477 10.6506 21.8057 10.7926C21.6637 10.9346 21.4711 11.0144 21.2703 11.0144ZM21.2703 7.98551H15.9698C15.7689 7.98551 15.5763 7.90573 15.4343 7.76373C15.2923 7.62172 15.2125 7.42912 15.2125 7.22829C15.2125 7.02746 15.2923 6.83486 15.4343 6.69285C15.5763 6.55085 15.7689 6.47107 15.9698 6.47107H21.2703C21.4711 6.47107 21.6637 6.55085 21.8057 6.69285C21.9477 6.83486 22.0275 7.02746 22.0275 7.22829C22.0275 7.42912 21.9477 7.62172 21.8057 7.76373C21.6637 7.90573 21.4711 7.98551 21.2703 7.98551Z" fill="white"/>
</svg>
