<svg width="37" height="37" viewBox="0 0 37 37" fill="none" xmlns="http://www.w3.org/2000/svg">
<path d="M7.57202 28.3439C7.57202 30.9457 13.4602 32.13 18.9303 32.13C24.4005 32.13 30.2887 30.9457 30.2887 28.3439C30.2887 26.2782 26.7131 25.3453 24.137 24.9424L25.8968 23.1948C27.2735 21.8181 28.2112 20.0641 28.5911 18.1545C28.971 16.245 28.7761 14.2657 28.031 12.4669C27.286 10.6681 26.0243 9.13067 24.4054 8.04897C22.7866 6.96728 20.8834 6.38992 18.9364 6.38992C16.9894 6.38992 15.0862 6.96728 13.4673 8.04897C11.8485 9.13067 10.5868 10.6681 9.84176 12.4669C9.09673 14.2657 8.90183 16.245 9.28173 18.1545C9.66162 20.0641 10.5992 21.8181 11.976 23.1948L13.7297 24.9485C11.1476 25.3453 7.57202 26.2782 7.57202 28.3439ZM20.4448 12.4422C20.4448 12.3016 20.4839 12.1637 20.5579 12.0441C20.6318 11.9245 20.7376 11.8278 20.8634 11.7649C20.9891 11.7021 21.1299 11.6754 21.27 11.6881C21.4101 11.7007 21.5438 11.7521 21.6563 11.8364C22.594 12.54 23.3726 13.4335 23.9413 14.4586C24.5099 15.4837 24.8558 16.6172 24.9563 17.7852C24.9896 18.144 24.8929 18.5028 24.6839 18.7963C24.4748 19.0898 24.1674 19.2985 23.8174 19.3844L21.9592 19.8494V21.5289C21.9592 21.7297 21.8794 21.9223 21.7374 22.0643C21.5954 22.2063 21.4028 22.2861 21.202 22.2861C21.0012 22.2861 20.8086 22.2063 20.6666 22.0643C20.5246 21.9223 20.4448 21.7297 20.4448 21.5289V12.4422ZM13.6298 13.9567V12.4422C13.6298 12.2414 13.7096 12.0488 13.8516 11.9068C13.9936 11.7648 14.1862 11.685 14.387 11.685C14.5878 11.685 14.7804 11.7648 14.9224 11.9068C15.0645 12.0488 15.1442 12.2414 15.1442 12.4422V13.9567C15.1472 14.2178 15.2188 14.4736 15.3517 14.6984C15.4845 14.9233 15.6741 15.1093 15.9015 15.2379V12.4422C15.9015 12.2414 15.9812 12.0488 16.1232 11.9068C16.2652 11.7648 16.4578 11.685 16.6587 11.685C16.8595 11.685 17.0521 11.7648 17.1941 11.9068C17.3361 12.0488 17.4159 12.2414 17.4159 12.4422V15.2379C17.6432 15.1093 17.8328 14.9233 17.9657 14.6984C18.0986 14.4736 18.1701 14.2178 18.1731 13.9567V12.4422C18.1731 12.2414 18.2529 12.0488 18.3949 11.9068C18.5369 11.7648 18.7295 11.685 18.9303 11.685C19.1312 11.685 19.3238 11.7648 19.4658 11.9068C19.6078 12.0488 19.6876 12.2414 19.6876 12.4422V13.9567C19.685 14.6262 19.4608 15.2761 19.0498 15.8046C18.6387 16.3332 18.0642 16.7106 17.4159 16.878V21.5289C17.4159 21.7297 17.3361 21.9223 17.1941 22.0643C17.0521 22.2063 16.8595 22.2861 16.6587 22.2861C16.4578 22.2861 16.2652 22.2063 16.1232 22.0643C15.9812 21.9223 15.9015 21.7297 15.9015 21.5289V16.878C15.2532 16.7106 14.6786 16.3332 14.2676 15.8046C13.8566 15.2761 13.6323 14.6262 13.6298 13.9567ZM15.0746 26.2933L17.3235 28.5438C17.5345 28.7549 17.785 28.9223 18.0607 29.0366C18.3364 29.1508 18.6319 29.2096 18.9303 29.2096C19.2288 29.2096 19.5243 29.1508 19.8 29.0366C20.0757 28.9223 20.3262 28.7549 20.5372 28.5438L22.7861 26.2933C26.9478 26.7749 28.7742 27.8714 28.7742 28.3439C28.7742 29.0223 25.4258 30.6155 18.9303 30.6155C12.4349 30.6155 9.08646 29.0223 9.08646 28.3439C9.08646 27.8714 10.9129 26.7749 15.0746 26.2933Z" fill="#EA1D2C"/>
</svg>
