<svg width="27" height="27" viewBox="0 0 27 27" fill="none" xmlns="http://www.w3.org/2000/svg">
<path d="M25.3317 17.1236L24.1565 17.7112L22.9813 17.1236C22.876 17.0708 22.7598 17.0433 22.642 17.0433C22.5242 17.0433 22.4081 17.0708 22.3028 17.1236L21.1276 17.7112L20.3704 17.3326V1.14166C20.3704 1.01253 20.3373 0.885547 20.2744 0.772779C20.2115 0.660012 20.1208 0.565206 20.0109 0.49737C19.9011 0.429533 19.7757 0.390921 19.6467 0.385204C19.5177 0.379486 19.3893 0.406851 19.2739 0.464701L18.0987 1.0523L16.9235 0.464701C16.8182 0.411935 16.702 0.38446 16.5843 0.38446C16.4665 0.38446 16.3503 0.411935 16.245 0.464701L15.0698 1.0523L13.8946 0.464701C13.7893 0.411935 13.6732 0.38446 13.5554 0.38446C13.4376 0.38446 13.3214 0.411935 13.2161 0.464701L12.0409 1.0523L10.8657 0.464701C10.7604 0.411935 10.6443 0.38446 10.5265 0.38446C10.4087 0.38446 10.2926 0.411935 10.1873 0.464701L9.01205 1.0523L7.83684 0.464701C7.73154 0.411935 7.61538 0.38446 7.4976 0.38446C7.37983 0.38446 7.26367 0.411935 7.15837 0.464701L5.98316 1.0523L4.80796 0.464701C4.70266 0.411935 4.5865 0.38446 4.46872 0.38446C4.35094 0.38446 4.23479 0.411935 4.12949 0.464701L2.95428 1.0523L1.77907 0.464701C1.66363 0.406851 1.53531 0.379486 1.40631 0.385204C1.27731 0.390921 1.15191 0.429533 1.04204 0.49737C0.932164 0.565206 0.841463 0.660012 0.778555 0.772779C0.715647 0.885547 0.682622 1.01253 0.682617 1.14166V22.3438C0.682617 23.348 1.08151 24.311 1.79154 25.021C2.50157 25.7311 3.46458 26.1299 4.46872 26.1299H22.642C23.6462 26.1299 24.6092 25.7311 25.3192 25.021C26.0292 24.311 26.4281 23.348 26.4281 22.3438V17.8005C26.4281 17.6714 26.3951 17.5444 26.3322 17.4316C26.2693 17.3189 26.1786 17.2241 26.0687 17.1562C25.9588 17.0884 25.8334 17.0498 25.7044 17.0441C25.5754 17.0383 25.4471 17.0657 25.3317 17.1236ZM10.5265 9.47109C10.524 10.1406 10.2997 10.7905 9.88868 11.319C9.47768 11.8476 8.90312 12.2251 8.25483 12.3924V19.315C8.25483 19.5158 8.17505 19.7084 8.03304 19.8504C7.89104 19.9924 7.69843 20.0722 7.4976 20.0722C7.29678 20.0722 7.10417 19.9924 6.96217 19.8504C6.82016 19.7084 6.74038 19.5158 6.74038 19.315V12.3924C6.09209 12.2251 5.51753 11.8476 5.10653 11.319C4.69552 10.7905 4.47123 10.1406 4.46872 9.47109V7.19942C4.46872 6.9986 4.5485 6.80599 4.69051 6.66399C4.83251 6.52198 5.02512 6.4422 5.22594 6.4422C5.42677 6.4422 5.61937 6.52198 5.76138 6.66399C5.90338 6.80599 5.98316 6.9986 5.98316 7.19942V9.47109C5.98618 9.73224 6.0577 9.98803 6.19058 10.2129C6.32347 10.4377 6.51305 10.6237 6.74038 10.7523V7.19942C6.74038 6.9986 6.82016 6.80599 6.96217 6.66399C7.10417 6.52198 7.29678 6.4422 7.4976 6.4422C7.69843 6.4422 7.89104 6.52198 8.03304 6.66399C8.17505 6.80599 8.25483 6.9986 8.25483 7.19942V10.7523C8.48215 10.6237 8.67174 10.4377 8.80463 10.2129C8.93751 9.98803 9.00904 9.73224 9.01205 9.47109V7.19942C9.01205 6.9986 9.09182 6.80599 9.23383 6.66399C9.37584 6.52198 9.56844 6.4422 9.76927 6.4422C9.97009 6.4422 10.1627 6.52198 10.3047 6.66399C10.4467 6.80599 10.5265 6.9986 10.5265 7.19942V9.47109ZM15.7589 15.5697L13.5554 16.121V19.315C13.5554 19.5158 13.4756 19.7084 13.3336 19.8504C13.1916 19.9924 12.999 20.0722 12.7982 20.0722C12.5973 20.0722 12.4047 19.9924 12.2627 19.8504C12.1207 19.7084 12.0409 19.5158 12.0409 19.315V7.19942C12.0407 7.04946 12.0849 6.9028 12.1681 6.77802C12.2513 6.65325 12.3697 6.55599 12.5082 6.49856C12.6467 6.44114 12.7992 6.42614 12.9462 6.45547C13.0933 6.4848 13.2284 6.55714 13.3343 6.66331C14.368 7.69154 15.1875 8.91459 15.7454 10.2617C16.3032 11.6088 16.5884 13.0531 16.5843 14.5111C16.5847 14.7544 16.5037 14.9909 16.3541 15.1828C16.2045 15.3746 15.9949 15.5109 15.7589 15.5697ZM24.9137 22.3438C24.9137 22.9463 24.6743 23.5241 24.2483 23.9501C23.8223 24.3762 23.2445 24.6155 22.642 24.6155C22.0395 24.6155 21.4617 24.3762 21.0357 23.9501C20.6097 23.5241 20.3704 22.9463 20.3704 22.3438V19.0257L20.7883 19.2347C20.8936 19.2875 21.0098 19.3149 21.1276 19.3149C21.2454 19.3149 21.3615 19.2875 21.4668 19.2347L22.642 18.6471L23.8172 19.2347C23.9225 19.2875 24.0387 19.3149 24.1565 19.3149C24.2742 19.3149 24.3904 19.2875 24.4957 19.2347L24.9137 19.0257V22.3438Z" fill="white"/>
</svg>
