<svg width="20" height="16" viewBox="0 0 20 16" fill="none" xmlns="http://www.w3.org/2000/svg">
<g clip-path="url(#clip0_160_234)">
<path d="M20 13.2396C20 13.9965 19.6745 14.6458 19.0234 15.1875C18.3724 15.7292 17.5885 16 16.6719 16H3.32812C2.41146 16 1.6276 15.7292 0.976562 15.1875C0.325521 14.6458 0 13.9965 0 13.2396C0 12.6493 0.0442708 12.092 0.132812 11.5677C0.221354 11.0434 0.385417 10.5156 0.625 9.98438C0.864583 9.45313 1.16927 8.99826 1.53906 8.61979C1.90885 8.24132 2.39844 7.93229 3.00781 7.69271C3.61719 7.45313 4.31771 7.33333 5.10938 7.33333C6.47396 8.22222 8.10417 8.66667 10 8.66667C11.8958 8.66667 13.526 8.22222 14.8906 7.33333C15.6823 7.33333 16.3828 7.45313 16.9922 7.69271C17.6016 7.93229 18.0911 8.24132 18.4609 8.61979C18.8307 8.99826 19.1354 9.45313 19.375 9.98438C19.6146 10.5156 19.7786 11.0434 19.8672 11.5677C19.9557 12.092 20 12.6493 20 13.2396ZM16 4C16 5.10417 15.4141 6.04688 14.2422 6.82813C13.0703 7.60938 11.6562 8 10 8C8.34375 8 6.92969 7.60938 5.75781 6.82813C4.58594 6.04688 4 5.10417 4 4C4 2.89583 4.58594 1.95313 5.75781 1.17188C6.92969 0.390625 8.34375 0 10 0C11.6562 0 13.0703 0.390625 14.2422 1.17188C15.4141 1.95313 16 2.89583 16 4Z" fill="#A5A5A5"/>
</g>
<defs>
<clipPath id="clip0_160_234">
<rect width="20" height="16" fill="white"/>
</clipPath>
</defs>
</svg>
