<svg width="24" height="27" viewBox="0 0 24 27" fill="none" xmlns="http://www.w3.org/2000/svg">
<path d="M0.572021 22.3439C0.572021 24.9457 6.46017 26.13 11.9303 26.13C17.4005 26.13 23.2887 24.9457 23.2887 22.3439C23.2887 20.2782 19.7131 19.3453 17.137 18.9424L18.8968 17.1948C20.2735 15.8181 21.2112 14.0641 21.5911 12.1545C21.971 10.245 21.7761 8.26568 21.031 6.4669C20.286 4.66812 19.0243 3.13067 17.4054 2.04897C15.7866 0.967277 13.8834 0.389923 11.9364 0.389923C9.98942 0.389923 8.08618 0.967277 6.46734 2.04897C4.84851 3.13067 3.5868 4.66812 2.84176 6.4669C2.09673 8.26568 1.90183 10.245 2.28173 12.1545C2.66162 14.0641 3.59925 15.8181 4.97602 17.1948L6.72974 18.9485C4.14762 19.3453 0.572021 20.2782 0.572021 22.3439ZM13.4448 6.44222C13.4448 6.3016 13.4839 6.16375 13.5579 6.04413C13.6318 5.9245 13.7376 5.82783 13.8634 5.76494C13.9891 5.70205 14.1299 5.67543 14.27 5.68806C14.4101 5.70069 14.5438 5.75207 14.6563 5.83644C15.594 6.53996 16.3726 7.43347 16.9413 8.45856C17.5099 9.48366 17.8558 10.6172 17.9563 11.7852C17.9896 12.144 17.8929 12.5028 17.6839 12.7963C17.4748 13.0898 17.1674 13.2985 16.8174 13.3844L14.9592 13.8494V15.5289C14.9592 15.7297 14.8794 15.9223 14.7374 16.0643C14.5954 16.2063 14.4028 16.2861 14.202 16.2861C14.0012 16.2861 13.8086 16.2063 13.6666 16.0643C13.5246 15.9223 13.4448 15.7297 13.4448 15.5289V6.44222ZM6.62979 7.95666V6.44222C6.62979 6.24139 6.70957 6.04879 6.85157 5.90679C6.99358 5.76478 7.18618 5.685 7.38701 5.685C7.58784 5.685 7.78044 5.76478 7.92245 5.90679C8.06445 6.04879 8.14423 6.24139 8.14423 6.44222V7.95666C8.14724 8.21782 8.21877 8.47361 8.35165 8.69845C8.48454 8.92329 8.67412 9.1093 8.90145 9.23788V6.44222C8.90145 6.24139 8.98123 6.04879 9.12324 5.90679C9.26524 5.76478 9.45785 5.685 9.65867 5.685C9.8595 5.685 10.0521 5.76478 10.1941 5.90679C10.3361 6.04879 10.4159 6.24139 10.4159 6.44222V9.23788C10.6432 9.1093 10.8328 8.92329 10.9657 8.69845C11.0986 8.47361 11.1701 8.21782 11.1731 7.95666V6.44222C11.1731 6.24139 11.2529 6.04879 11.3949 5.90679C11.5369 5.76478 11.7295 5.685 11.9303 5.685C12.1312 5.685 12.3238 5.76478 12.4658 5.90679C12.6078 6.04879 12.6876 6.24139 12.6876 6.44222V7.95666C12.685 8.62621 12.4608 9.27605 12.0498 9.80461C11.6387 10.3332 11.0642 10.7106 10.4159 10.878V15.5289C10.4159 15.7297 10.3361 15.9223 10.1941 16.0643C10.0521 16.2063 9.8595 16.2861 9.65867 16.2861C9.45785 16.2861 9.26524 16.2063 9.12324 16.0643C8.98123 15.9223 8.90145 15.7297 8.90145 15.5289V10.878C8.25316 10.7106 7.6786 10.3332 7.2676 9.80461C6.85659 9.27605 6.6323 8.62621 6.62979 7.95666ZM8.07457 20.2933L10.3235 22.5438C10.5345 22.7549 10.785 22.9223 11.0607 23.0366C11.3364 23.1508 11.6319 23.2096 11.9303 23.2096C12.2288 23.2096 12.5243 23.1508 12.8 23.0366C13.0757 22.9223 13.3262 22.7549 13.5372 22.5438L15.7861 20.2933C19.9478 20.7749 21.7742 21.8714 21.7742 22.3439C21.7742 23.0223 18.4258 24.6155 11.9303 24.6155C5.43489 24.6155 2.08646 23.0223 2.08646 22.3439C2.08646 21.8714 3.91288 20.7749 8.07457 20.2933Z" fill="white"/>
</svg>
