<svg width="27" height="23" viewBox="0 0 27 23" fill="none" xmlns="http://www.w3.org/2000/svg">
<path d="M24.3493 6.47107H23.5921V2.68496C23.5921 2.08248 23.3528 1.50467 22.9268 1.07865C22.5007 0.652634 21.9229 0.4133 21.3205 0.4133H3.14715C2.54467 0.4133 1.96686 0.652634 1.54084 1.07865C1.11482 1.50467 0.875488 2.08248 0.875488 2.68496V14.8005C0.875488 15.403 1.11482 15.9808 1.54084 16.4068C1.96686 16.8328 2.54467 17.0722 3.14715 17.0722H3.90437V18.4352C3.90499 18.6595 3.97192 18.8786 4.09674 19.065C4.22157 19.2513 4.39872 19.3966 4.6059 19.4826C4.81309 19.5685 5.04107 19.5913 5.26117 19.548C5.48126 19.5047 5.68364 19.3973 5.84286 19.2393L8.00397 17.0722H9.96214V17.8294C9.96214 18.4319 10.2015 19.0097 10.6275 19.4357C11.0535 19.8617 11.6313 20.101 12.2338 20.101H19.4925L21.6536 22.2622C21.8122 22.4205 22.0141 22.5285 22.2339 22.5723C22.4536 22.6162 22.6815 22.5941 22.8887 22.5088C23.096 22.4235 23.2733 22.2788 23.3985 22.0928C23.5237 21.9069 23.591 21.6882 23.5921 21.464V20.101H24.3493C24.9518 20.101 25.5296 19.8617 25.9556 19.4357C26.3817 19.0097 26.621 18.4319 26.621 17.8294V8.74273C26.621 8.14025 26.3817 7.56244 25.9556 7.13642C25.5296 6.7104 24.9518 6.47107 24.3493 6.47107ZM22.0777 14.8005C22.0777 15.0013 21.9979 15.1939 21.8559 15.3359C21.7139 15.4779 21.5213 15.5577 21.3205 15.5577H7.69048C7.59097 15.5575 7.4924 15.577 7.40041 15.6149C7.30842 15.6529 7.22481 15.7086 7.15436 15.7788L5.41881 17.5159V16.3149C5.41881 16.1141 5.33904 15.9215 5.19703 15.7795C5.05502 15.6375 4.86242 15.5577 4.66159 15.5577H3.14715C2.94632 15.5577 2.75372 15.4779 2.61171 15.3359C2.46971 15.1939 2.38993 15.0013 2.38993 14.8005V2.68496C2.38993 2.48413 2.46971 2.29153 2.61171 2.14953C2.75372 2.00752 2.94632 1.92774 3.14715 1.92774H21.3205C21.5213 1.92774 21.7139 2.00752 21.8559 2.14953C21.9979 2.29153 22.0777 2.48413 22.0777 2.68496V14.8005Z" fill="white"/>
</svg>
