<svg width="27" height="23" viewBox="0 0 27 23" fill="none" xmlns="http://www.w3.org/2000/svg">
<path d="M0.807129 16.7986C0.807129 17.4011 1.04646 17.9789 1.47248 18.4049C1.8985 18.8309 2.47631 19.0703 3.07879 19.0703H3.91325C4.08704 19.9262 4.55138 20.6956 5.22759 21.2483C5.9038 21.801 6.75029 22.103 7.62363 22.103C8.49698 22.103 9.34347 21.801 10.0197 21.2483C10.6959 20.6956 11.1602 19.9262 11.334 19.0703H16.103C17.1306 19.0631 18.1337 18.7562 18.9895 18.1874C18.9895 18.2298 18.9774 18.2706 18.9774 18.3131C18.9769 19.1278 19.2391 19.9209 19.7253 20.5747C20.2114 21.2284 20.8954 21.708 21.6758 21.942C22.4561 22.1761 23.2912 22.1522 24.0569 21.8739C24.8226 21.5956 25.478 21.0777 25.926 20.3972C26.3739 19.7167 26.5904 18.9098 26.5433 18.0965C26.4961 17.2832 26.1879 16.5067 25.6644 15.8825C25.1409 15.2583 24.4299 14.8196 23.6372 14.6316C22.8445 14.4436 22.0123 14.5163 21.2642 14.8389C21.392 14.2728 21.4247 13.6893 21.3611 13.1125L20.775 8.41769C20.9317 8.45198 21.0917 8.46924 21.2521 8.46918H22.0093C22.411 8.46918 22.7962 8.30962 23.0802 8.02561C23.3642 7.7416 23.5238 7.3564 23.5238 6.95474V5.4403C23.5238 5.03864 23.3642 4.65344 23.0802 4.36943C22.7962 4.08541 22.411 3.92586 22.0093 3.92586H21.2521C20.9012 3.9275 20.5555 4.01039 20.242 4.16804C19.9286 4.3257 19.6559 4.55382 19.4454 4.83452L19.2015 4.5907C18.7747 4.16665 18.1979 3.9278 17.5962 3.92586H16.7088C16.5079 3.92586 16.3153 4.00563 16.1733 4.14764C16.0313 4.28965 15.9515 4.48225 15.9515 4.68308C15.9515 4.8839 16.0313 5.07651 16.1733 5.21851C16.3153 5.36052 16.5079 5.4403 16.7088 5.4403H17.5962C17.7967 5.44034 17.9889 5.51985 18.1308 5.66141L19.0153 6.54584C19.038 6.68668 19.5817 11.0558 19.8618 13.3003C19.9284 13.8331 19.8809 14.374 19.7224 14.8871C19.5639 15.4002 19.2981 15.8737 18.9426 16.2762C18.5871 16.6786 18.1501 17.0009 17.6605 17.2215C17.1709 17.4422 16.64 17.5561 16.103 17.5558H15.8152L14.4371 10.6666V9.2264C14.4371 8.62392 14.1978 8.04611 13.7718 7.62009C13.3457 7.19408 12.7679 6.95474 12.1654 6.95474H9.13656V3.16864C9.13656 2.56615 8.89722 1.98835 8.4712 1.56233C8.04519 1.13631 7.46738 0.896973 6.8649 0.896973H3.07879C2.47631 0.896973 1.8985 1.13631 1.47248 1.56233C1.04646 1.98835 0.807129 2.56615 0.807129 3.16864V9.2264C0.807129 9.82889 1.04646 10.4067 1.47248 10.8327C1.8985 11.2587 2.47631 11.4981 3.07879 11.4981H3.39077C2.58871 12.1299 1.93977 12.9349 1.49239 13.8527C1.04502 14.7705 0.810765 15.7776 0.807129 16.7986ZM22.7665 16.0414C23.2158 16.0414 23.655 16.1746 24.0286 16.4242C24.4022 16.6739 24.6933 17.0286 24.8653 17.4437C25.0372 17.8588 25.0822 18.3156 24.9945 18.7562C24.9069 19.1969 24.6905 19.6017 24.3728 19.9194C24.0551 20.2371 23.6504 20.4534 23.2097 20.5411C22.7691 20.6287 22.3123 20.5837 21.8972 20.4118C21.4821 20.2399 21.1273 19.9487 20.8777 19.5751C20.6281 19.2015 20.4949 18.7623 20.4949 18.3131C20.4949 17.7106 20.7342 17.1328 21.1602 16.7067C21.5862 16.2807 22.1641 16.0414 22.7665 16.0414ZM9.13656 8.46918H12.1654C12.3663 8.46918 12.5589 8.54896 12.7009 8.69097C12.8429 8.83297 12.9227 9.02558 12.9227 9.2264V9.98362H9.13656V8.46918ZM9.75445 19.0703C9.60025 19.5129 9.31212 19.8966 8.93003 20.1681C8.54794 20.4396 8.09084 20.5854 7.62212 20.5854C7.1534 20.5854 6.69629 20.4396 6.3142 20.1681C5.93212 19.8966 5.64399 19.5129 5.48978 19.0703H9.75445ZM2.32157 3.16864C2.32157 2.96781 2.40135 2.77521 2.54336 2.6332C2.68536 2.49119 2.87796 2.41141 3.07879 2.41141H6.8649C7.06572 2.41141 7.25833 2.49119 7.40033 2.6332C7.54234 2.77521 7.62212 2.96781 7.62212 3.16864V3.92586H2.32157V3.16864ZM2.32157 5.4403H7.62212V6.93202H2.32157V5.4403ZM3.07879 9.98362C2.87796 9.98362 2.68536 9.90385 2.54336 9.76184C2.40135 9.61983 2.32157 9.42723 2.32157 9.2264V8.44646H7.62212V9.98362H3.07879Z" fill="white"/>
</svg>
