<svg width="29" height="28" viewBox="0 0 29 28" fill="none" xmlns="http://www.w3.org/2000/svg">
<path d="M26.4222 7.34037C25.5457 7.73875 24.601 8.00054 23.6221 8.12575C24.6238 7.52249 25.3978 6.56637 25.762 5.41676C24.8173 5.98587 23.7701 6.38425 22.666 6.6119C21.7668 5.63302 20.5034 5.0639 19.0692 5.0639C16.3943 5.0639 14.2089 7.24931 14.2089 9.94692C14.2089 10.3339 14.2545 10.7095 14.3341 11.0624C10.282 10.8575 6.67384 8.91113 4.27217 5.96311C3.85102 6.68019 3.612 7.52249 3.612 8.41031C3.612 10.1063 4.46567 11.6087 5.78602 12.4624C4.97787 12.4624 4.22664 12.2348 3.56647 11.8933V11.9274C3.56647 14.295 5.25105 16.2755 7.48199 16.7194C6.76573 16.9154 6.01377 16.9427 5.2852 16.7991C5.59435 17.7694 6.19981 18.6184 7.01647 19.2268C7.83313 19.8353 8.81992 20.1724 9.83813 20.191C8.11215 21.5574 5.97269 22.296 3.77135 22.2854C3.38435 22.2854 2.99735 22.2626 2.61035 22.2171C4.77299 23.6057 7.3454 24.4139 10.0999 24.4139C19.0692 24.4139 23.9977 16.9698 23.9977 10.516C23.9977 10.2998 23.9977 10.0949 23.9864 9.87863C24.9425 9.19569 25.762 8.33063 26.4222 7.34037Z" fill="black"/>
</svg>
