<svg width="28" height="28" viewBox="0 0 28 28" fill="none" xmlns="http://www.w3.org/2000/svg">
<path d="M22.0954 3.92569C22.6991 3.92569 23.2782 4.16553 23.7051 4.59245C24.132 5.01937 24.3718 5.5984 24.3718 6.20215V22.1374C24.3718 22.7412 24.132 23.3202 23.7051 23.7471C23.2782 24.174 22.6991 24.4139 22.0954 24.4139H6.16013C5.55638 24.4139 4.97735 24.174 4.55043 23.7471C4.12351 23.3202 3.88367 22.7412 3.88367 22.1374V6.20215C3.88367 5.5984 4.12351 5.01937 4.55043 4.59245C4.97735 4.16553 5.55638 3.92569 6.16013 3.92569H22.0954ZM21.5263 21.5683V15.5357C21.5263 14.5515 21.1353 13.6077 20.4394 12.9118C19.7436 12.216 18.7998 11.825 17.8156 11.825C16.8481 11.825 15.7213 12.4169 15.1749 13.3047V12.0413H11.9993V21.5683H15.1749V15.9568C15.1749 15.0804 15.8806 14.3633 16.7571 14.3633C17.1797 14.3633 17.585 14.5312 17.8839 14.83C18.1827 15.1289 18.3506 15.5342 18.3506 15.9568V21.5683H21.5263ZM8.30001 10.2543C8.80716 10.2543 9.29355 10.0528 9.65216 9.69418C10.0108 9.33557 10.2122 8.84919 10.2122 8.34203C10.2122 7.28348 9.35856 6.41842 8.30001 6.41842C7.78983 6.41842 7.30056 6.62108 6.93981 6.98183C6.57906 7.34258 6.3764 7.83186 6.3764 8.34203C6.3764 9.40059 7.24145 10.2543 8.30001 10.2543ZM9.88215 21.5683V12.0413H6.72925V21.5683H9.88215Z" fill="black"/>
</svg>
