<svg width="28" height="28" viewBox="0 0 28 28" fill="none" xmlns="http://www.w3.org/2000/svg">
<path d="M15.4919 2.78748C16.7724 2.79089 17.4224 2.79772 17.9835 2.81365L18.2043 2.82162C18.4593 2.83073 18.7108 2.84211 19.0148 2.85577C20.2258 2.91268 21.0522 3.1039 21.7772 3.38505C22.5285 3.67416 23.1613 4.06571 23.7942 4.69743C24.373 5.26643 24.8208 5.95471 25.1066 6.71438C25.3877 7.43943 25.5789 8.26579 25.6359 9.478C25.6495 9.78077 25.6609 10.0323 25.67 10.2884L25.6768 10.5092C25.6939 11.0693 25.7007 11.7192 25.703 12.9997L25.7041 13.8488V15.3399C25.7069 16.1701 25.6982 17.0004 25.678 17.8304L25.6711 18.0512C25.662 18.3073 25.6507 18.5588 25.637 18.8616C25.5801 20.0738 25.3866 20.899 25.1066 21.6252C24.8216 22.3853 24.3737 23.0738 23.7942 23.6422C23.225 24.2208 22.5368 24.6686 21.7772 24.9545C21.0522 25.2357 20.2258 25.4269 19.0148 25.4838C18.7447 25.4965 18.4745 25.5079 18.2043 25.518L17.9835 25.5248C17.4224 25.5407 16.7724 25.5487 15.4919 25.551L14.6428 25.5521H13.1529C12.3222 25.555 11.4916 25.5463 10.6613 25.5259L10.4405 25.5191C10.1702 25.5089 9.9001 25.4971 9.63003 25.4838C8.41895 25.4269 7.59259 25.2357 6.8664 24.9545C6.10682 24.6693 5.41882 24.2214 4.85059 23.6422C4.27128 23.0734 3.82302 22.3851 3.53707 21.6252C3.25593 20.9002 3.06471 20.0738 3.00779 18.8616C2.99511 18.5915 2.98373 18.3214 2.97365 18.0512L2.96796 17.8304C2.94698 17.0004 2.93749 16.1701 2.9395 15.3399V12.9997C2.93632 12.1695 2.94467 11.3392 2.96454 10.5092L2.97251 10.2884C2.98161 10.0323 2.993 9.78077 3.00666 9.478C3.06357 8.26579 3.25479 7.44057 3.53593 6.71438C3.82176 5.95393 4.27091 5.26543 4.85173 4.69743C5.41981 4.11861 6.10736 3.67073 6.8664 3.38505C7.59259 3.1039 8.41781 2.91268 9.63003 2.85577C9.9328 2.84211 10.1855 2.83073 10.4405 2.82162L10.6613 2.81479C11.4913 2.79457 12.3215 2.78584 13.1517 2.78861L15.4919 2.78748ZM14.3218 8.47864C12.8124 8.47864 11.3649 9.07824 10.2976 10.1455C9.23026 11.2128 8.63066 12.6604 8.63066 14.1698C8.63066 15.6792 9.23026 17.1268 10.2976 18.1941C11.3649 19.2614 12.8124 19.861 14.3218 19.861C15.8312 19.861 17.2788 19.2614 18.3461 18.1941C19.4134 17.1268 20.013 15.6792 20.013 14.1698C20.013 12.6604 19.4134 11.2128 18.3461 10.1455C17.2788 9.07824 15.8312 8.47864 14.3218 8.47864ZM14.3218 10.7551C14.7702 10.755 15.2143 10.8433 15.6286 11.0148C16.0429 11.1863 16.4194 11.4378 16.7365 11.7548C17.0537 12.0719 17.3053 12.4483 17.4769 12.8625C17.6486 13.2768 17.737 13.7208 17.7371 14.1692C17.7372 14.6177 17.6489 15.0617 17.4774 15.476C17.3058 15.8903 17.0544 16.2668 16.7374 16.584C16.4203 16.9011 16.0439 17.1527 15.6297 17.3243C15.2154 17.496 14.7714 17.5844 14.323 17.5845C13.4173 17.5845 12.5488 17.2247 11.9084 16.5844C11.268 15.944 10.9083 15.0754 10.9083 14.1698C10.9083 13.2642 11.268 12.3956 11.9084 11.7552C12.5488 11.1149 13.4173 10.7551 14.323 10.7551M20.2987 6.77129C19.9213 6.77129 19.5594 6.92119 19.2926 7.18801C19.0258 7.45484 18.8759 7.81673 18.8759 8.19408C18.8759 8.57143 19.0258 8.93332 19.2926 9.20014C19.5594 9.46697 19.9213 9.61687 20.2987 9.61687C20.676 9.61687 21.0379 9.46697 21.3047 9.20014C21.5716 8.93332 21.7215 8.57143 21.7215 8.19408C21.7215 7.81673 21.5716 7.45484 21.3047 7.18801C21.0379 6.92119 20.676 6.77129 20.2987 6.77129Z" fill="black"/>
</svg>
