<svg width="125" height="66" viewBox="0 0 125 66" fill="none" xmlns="http://www.w3.org/2000/svg">
<g clip-path="url(#clip0_2_71)">
<path d="M0 37.8899H9.49655L14.7737 11.6182H5.27586L0 37.8899ZM5.7991 8.48479H15.3354L16.9026 0.624447H7.37005L5.7991 8.48479ZM13.1903 45.2825H22.6881L28.4909 16.8987H35.6136L36.6638 11.6182H29.6778L29.9425 10.4303C30.3377 8.19122 31.1294 5.67726 34.6902 5.67726C36.803 5.67726 38.7804 5.80911 40.7577 6.73335L41.8141 1.18919C39.6104 0.410959 37.2917 0.00896352 34.9549 0C27.304 0 22.0294 4.48931 20.0495 11.6182H16.7523L15.6971 16.8987H18.9943L13.1903 45.2825Z" fill="white"/>
<path d="M43.2645 38.4185C54.4762 38.4185 62.2589 28.252 62.2589 19.9351C62.2589 13.7304 56.5866 11.0896 51.0472 11.0896C38.7767 11.0896 32.0529 22.0535 32.0529 29.573C32.0529 35.7777 37.8569 38.4185 43.2645 38.4185ZM73.3413 38.4185C84.553 38.4185 92.3357 28.252 92.3357 19.9351C92.3357 13.7304 86.5316 11.0896 80.991 11.0896C68.7242 11.0896 61.9979 22.0473 61.9979 29.573C61.9979 35.7777 67.9337 38.4185 73.3413 38.4185ZM107.768 37.8899H117.133L124.781 0.533646H115.285L113.041 11.6232L109.084 11.2276C99.8511 11.2276 91.4097 23.1083 91.4097 31.5583C91.4097 34.9903 93.6469 38.4235 97.4773 38.4235C102.885 38.4235 106.71 35.7827 108.29 33.1418H108.817L107.768 37.8899ZM78.4829 57.5612C71.1115 63.6742 61.6435 66.6591 52.1024 65.8781C39.5708 65.0857 30.6012 55.4478 29.0191 45.2825H29.5461C32.4481 51.6265 39.4391 57.5612 48.0134 58.4842C56.7133 59.5403 67.1395 55.5809 72.8106 50.1674L66.4796 45.2825H85.6057L81.38 65.6144L78.6097 57.6931L78.4829 57.5612Z" fill="white"/>
</g>
<defs>
<clipPath id="clip0_2_71">
<rect width="124.781" height="66" fill="white"/>
</clipPath>
</defs>
</svg>
